<?xml version="1.0" standalone="no"?><!DOCTYPE svg PUBLIC "-//W3C//DTD SVG 1.1//EN" "http://www.w3.org/Graphics/SVG/1.1/DTD/svg11.dtd"><svg t="1729069650486" class="icon" viewBox="0 0 1024 1024" version="1.1" xmlns="http://www.w3.org/2000/svg" p-id="1399" xmlns:xlink="http://www.w3.org/1999/xlink" width="200" height="200"><path d="M487.424 392.704H486.4l-49.152 147.456H537.6z" p-id="1400"></path><path d="M915.456 72.192v838.144c0 31.232-25.6 56.832-57.856 56.832H137.728c-15.872 0-28.672-12.8-28.672-28.672s12.8-28.672 28.672-28.672h719.872V0h-691.2C102.912 0 51.2 50.688 51.2 113.664v796.672c0 62.976 51.712 113.664 115.2 113.664h691.2c63.488 0 115.2-50.688 115.2-113.664V170.496c0-40.448-22.016-77.824-57.344-98.304zM295.424 646.656l126.976-328.704c5.632-14.336 19.456-24.064 35.328-24.064h60.928c15.36 0 29.696 9.216 35.328 23.552l128.512 327.68c7.68 18.944-2.048 40.448-21.504 48.128-4.096 1.536-8.704 2.56-13.312 2.56h-28.672c-15.872 0-30.208-9.728-35.328-25.088l-19.456-53.76h-153.6L392.704 670.72c-5.12 15.36-19.456 25.6-35.84 25.6h-26.624c-20.48 0-36.864-16.384-36.864-36.352 0-4.608 0.512-9.216 2.048-13.312z" p-id="1401"></path></svg>