<?xml version="1.0" standalone="no"?><!DOCTYPE svg PUBLIC "-//W3C//DTD SVG 1.1//EN" "http://www.w3.org/Graphics/SVG/1.1/DTD/svg11.dtd"><svg t="1730256745012" class="icon" viewBox="0 0 1024 1024" version="1.1" xmlns="http://www.w3.org/2000/svg" p-id="1919" xmlns:xlink="http://www.w3.org/1999/xlink" width="200" height="200"><path d="M299.52 996.992c-43.136 26.752-99.456 12.928-125.568-30.72-12.416-20.736-16.256-45.44-10.752-68.864l55.808-237.824c1.408-5.632-0.512-11.52-4.864-15.488L31.616 485.12c-37.888-33.024-42.24-90.752-9.856-129.28 15.616-18.56 37.888-30.08 62.08-32.128l239.616-19.456c5.248-0.384 9.856-3.84 12.032-9.088l92.288-225.792c19.2-46.976 72.704-69.504 119.424-49.792 22.272 9.472 39.808 27.392 49.024 49.792l92.288 225.792c2.176 5.248 6.784 8.704 12.032 9.088L940.032 323.84c50.304 4.096 87.424 48.512 83.456 98.944-1.92 24.064-13.056 46.464-31.232 62.336L809.6 644.224c-4.224 3.712-6.144 9.728-4.864 15.36l55.808 237.824c11.52 49.152-18.432 98.816-67.328 110.592-23.552 5.76-48.384 1.664-68.992-11.136l-205.184-127.488c-4.352-2.816-9.984-2.816-14.464 0L299.52 996.992z m260.096-192.64L764.8 931.84c3.2 1.92 6.912 2.56 10.368 1.664 7.68-1.92 12.672-10.112 10.752-18.56L730.112 677.12c-7.808-33.408 3.328-68.352 29.184-90.88l182.528-159.104c2.944-2.56 4.864-6.4 5.248-10.496 0.64-8.576-5.376-15.744-13.184-16.384l-239.616-19.584c-34.176-2.816-64-24.704-76.8-56.576L525.056 98.432c-1.408-3.584-4.224-6.528-7.808-8.064-7.04-2.944-15.232 0.384-18.432 8.064l-92.288 225.792c-12.928 31.872-42.624 53.76-76.8 56.576L89.984 400.256c-3.712 0.384-7.168 2.176-9.6 4.992-5.376 6.528-4.736 16.256 1.536 21.888L264.448 586.24c25.728 22.528 36.992 57.472 29.184 90.88l-55.808 237.824c-0.896 4.096-0.256 8.32 1.792 11.904 4.224 6.912 12.672 9.088 19.328 4.992l205.184-127.488c29.312-18.176 66.304-18.176 95.488 0z m0 0" p-id="1920"></path></svg>