<?xml version="1.0" standalone="no"?><!DOCTYPE svg PUBLIC "-//W3C//DTD SVG 1.1//EN" "http://www.w3.org/Graphics/SVG/1.1/DTD/svg11.dtd"><svg t="1730256721206" class="icon" viewBox="0 0 1024 1024" version="1.1" xmlns="http://www.w3.org/2000/svg" p-id="1755" xmlns:xlink="http://www.w3.org/1999/xlink" width="200" height="200"><path d="M299.648 997.504c-43.136 26.752-99.456 12.928-125.696-30.72-12.416-20.736-16.256-45.44-10.752-68.864l55.808-237.824c1.408-5.632-0.512-11.52-4.864-15.488L31.616 485.504c-37.888-33.024-42.368-90.752-9.856-129.28 15.616-18.56 37.888-30.08 62.08-32.128L323.456 304.64c5.248-0.384 9.856-3.84 12.032-9.088l92.288-225.792c19.2-46.976 72.704-69.504 119.424-49.792 22.272 9.472 39.936 27.392 49.024 49.792l92.288 225.792c2.176 5.248 6.784 8.704 12.032 9.088l239.616 19.584c50.304 4.096 87.424 48.512 83.456 99.072-1.92 24.064-13.056 46.464-31.36 62.336L809.856 644.736c-4.224 3.712-6.144 9.728-4.864 15.36l55.808 237.952c11.52 49.152-18.432 98.816-67.328 110.72-23.552 5.76-48.384 1.664-68.992-11.136l-205.184-127.488c-4.352-2.816-9.984-2.816-14.464 0l-205.184 127.36z m0 0" p-id="1756"></path></svg>