<?xml version="1.0" standalone="no"?><!DOCTYPE svg PUBLIC "-//W3C//DTD SVG 1.1//EN" "http://www.w3.org/Graphics/SVG/1.1/DTD/svg11.dtd"><svg t="1727659876464" class="icon" viewBox="0 0 1024 1024" version="1.1" xmlns="http://www.w3.org/2000/svg" p-id="1888" xmlns:xlink="http://www.w3.org/1999/xlink" width="200" height="200"><path d="M512 12.8C229.376 12.8 0 242.176 0 525.312c0 223.744 143.36 414.208 343.04 483.84 27.136 6.656 22.528-12.288 22.528-25.6v-88.576c-155.136 18.432-161.28-84.48-172.032-101.888-20.992-35.84-70.656-45.056-55.808-62.464 35.328-18.432 71.168 4.608 113.152 66.56 30.208 44.544 89.088 37.376 118.784 29.696 6.656-27.136 20.48-51.2 39.936-69.632-160.768-28.672-227.84-126.976-227.84-244.224 0-56.832 18.432-109.056 55.296-151.04-23.552-69.12 2.048-128.512 5.632-137.728 66.56-6.144 135.68 47.616 140.8 51.712 37.888-10.24 80.896-15.36 129.024-15.36 48.64 0 91.648 5.632 130.048 15.872 12.8-9.728 76.8-55.808 138.752-50.176 3.072 8.704 28.16 66.56 6.144 135.168 36.864 41.984 55.808 94.72 55.808 151.552 0 117.248-67.584 215.552-228.864 243.712 26.624 26.624 43.52 63.488 43.52 104.448v129.024c1.024 10.24 0 20.48 17.408 20.48 202.752-68.608 348.672-260.096 348.672-485.888 0-282.624-229.376-512-512-512z m0 0" p-id="1889"></path></svg>