<?xml version="1.0" standalone="no"?><!DOCTYPE svg PUBLIC "-//W3C//DTD SVG 1.1//EN" "http://www.w3.org/Graphics/SVG/1.1/DTD/svg11.dtd"><svg t="1730425135634" class="icon" viewBox="0 0 1024 1024" version="1.1" xmlns="http://www.w3.org/2000/svg" p-id="1755" xmlns:xlink="http://www.w3.org/1999/xlink" width="200" height="200"><path d="M870.528 1024H153.728c-40.704 0-79.872-16.128-108.672-45.056-28.8-28.8-45.056-67.84-45.056-108.672v-460.8c0-7.424 0.512-14.848 1.536-22.144-6.144-32.896 8.576-66.304 36.992-84.096l15.36-10.752c7.936-6.656 16.512-12.672 25.6-17.664l370.688-256c37.504-25.088 86.4-25.088 123.776 0l370.688 256c9.088 4.992 17.664 10.88 25.6 17.664l15.36 10.752c28.416 17.792 43.136 51.072 36.992 84.096 1.024 7.296 1.664 14.72 1.664 22.144V870.4c0 84.864-68.864 153.6-153.728 153.6zM307.328 665.6c-18.304 0-35.2 9.728-44.288 25.6-9.088 15.872-9.088 35.328 0 51.2 9.088 15.872 26.112 25.6 44.288 25.6h409.6c18.304 0 35.2-9.728 44.288-25.6 9.088-15.872 9.088-35.328 0-51.2-9.088-15.872-26.112-25.6-44.288-25.6H307.328z m0 0" p-id="1756"></path></svg>