<?xml version="1.0" standalone="no"?><!DOCTYPE svg PUBLIC "-//W3C//DTD SVG 1.1//EN" "http://www.w3.org/Graphics/SVG/1.1/DTD/svg11.dtd"><svg t="1727659881127" class="icon" viewBox="0 0 1024 1024" version="1.1" xmlns="http://www.w3.org/2000/svg" p-id="2044" xmlns:xlink="http://www.w3.org/1999/xlink" width="200" height="200"><path d="M1004.032 611.84L891.904 537.6l-19.968-12.8-13.312 19.456-211.968 298.496-4.096 5.632v7.168l-1.536 118.272v35.328l33.792-12.8 113.664-45.056 6.656-2.56 4.096-5.632 210.944-299.008 13.312-19.456-19.456-12.8z m-229.376 297.472L696.32 848.896l24.064-38.912L798.72 870.4l-24.064 38.912z m49.664-798.72C821.76 57.344 776.704 15.36 721.92 15.36H102.4C46.08 15.36 0 59.904 0 114.688v674.816c2.048 54.784 49.664 97.792 105.984 95.744 133.632-4.608 262.144-7.168 385.536-7.168 26.112 0 46.08-16.896 58.88-32.768 100.352-121.856 196.608-246.784 289.28-374.784l-15.36-359.936zM443.392 727.552H352.768V640h90.624v87.552z m117.248-326.144c-11.264 19.968-32.768 43.52-65.536 71.168-20.48 17.92-34.304 31.232-40.448 39.424-6.144 7.68-10.24 17.408-13.312 27.648-3.072 10.752-4.608 28.16-5.12 53.248v7.68H357.376v-7.68c-0.512-8.704-0.512-14.848-0.512-19.456 0-25.6 3.584-48.64 11.264-67.072 5.632-14.336 14.848-28.672 27.136-43.52 9.216-10.24 25.088-25.6 48.128-45.056 22.016-18.944 36.352-33.792 42.496-44.544 6.144-10.24 9.216-21.504 9.216-33.792 0-22.528-8.704-41.984-27.136-59.392-18.432-17.408-40.448-26.112-67.584-26.112-26.112 0-47.104 7.68-64.512 23.04-17.408 15.872-28.672 40.96-34.304 74.752l-1.536 7.68-82.944-9.216 1.024-7.68c6.144-50.176 25.088-88.576 56.32-115.712 31.232-26.624 72.704-40.448 123.904-40.448 53.76 0 97.792 14.336 130.048 43.008 32.768 28.672 49.152 64.512 49.152 105.472 0 24.576-5.632 46.592-16.896 66.56z m0 0" p-id="2045"></path></svg>