<?xml version="1.0" standalone="no"?><!DOCTYPE svg PUBLIC "-//W3C//DTD SVG 1.1//EN" "http://www.w3.org/Graphics/SVG/1.1/DTD/svg11.dtd"><svg t="1727659867359" class="icon" viewBox="0 0 1024 1024" version="1.1" xmlns="http://www.w3.org/2000/svg" p-id="1732" xmlns:xlink="http://www.w3.org/1999/xlink" width="200" height="200"><path d="M697.344 53.76c-25.088-2.56-54.784-2.56-91.648-2.56H417.792c-36.864 0-66.56 0-91.648 2.56-26.112 2.56-48.64 8.192-70.656 20.48-21.504 12.288-37.888 29.184-53.248 50.176-14.336 19.968-29.696 45.568-48.128 77.312L61.44 360.96c-18.432 31.744-33.792 57.344-44.032 79.872C6.656 464.896 0 487.424 0 512c0 24.576 6.656 47.104 17.408 70.656 10.24 22.528 25.6 48.64 44.032 79.872l93.184 159.744c18.432 31.232 33.28 57.344 48.128 77.312 15.36 20.992 31.232 37.888 53.248 50.176 21.504 12.288 44.544 17.92 70.656 19.968 24.576 2.56 54.784 2.56 91.648 2.56h187.904c36.864 0 66.56 0 91.648-2.56 26.112-2.56 48.64-7.68 70.656-20.48 21.504-12.288 37.888-29.184 53.248-50.176 14.336-19.968 29.696-45.568 48.128-77.312l93.184-159.744c18.432-31.744 33.792-57.344 44.032-79.872 10.752-23.552 17.408-46.08 17.408-70.656 0-24.576-6.656-47.104-17.408-70.656-10.24-22.528-25.6-48.64-44.032-79.872l-93.184-159.744c-18.432-31.232-33.28-57.344-48.128-77.312-15.36-20.992-31.232-37.888-53.248-50.176-22.016-12.288-45.056-17.408-71.168-19.968zM512 677.376c-92.16 0-166.912-74.24-166.912-165.376 0-91.136 74.752-165.376 166.912-165.376s166.912 74.24 166.912 165.376c0 91.136-74.752 165.376-166.912 165.376z m0 0" p-id="1733"></path></svg>